<svg xmlns="http://www.w3.org/2000/svg" xmlns:xlink="http://www.w3.org/1999/xlink" viewBox="0 0 541.77 528.69">
  <defs>
    <style>
      .cls-1 {
        fill: none;
      }

      .cls-2 {
        fill: #676f72;
      }

      .cls-3 {
        fill: #82888b;
      }

      .cls-4 {
        fill: #4c5659;
      }

      .cls-5 {
        fill: #ffce71;
      }

      .cls-6 {
        fill: #ff8e9e;
      }

      .cls-7 {
        fill: #ffb357;
      }

      .cls-8 {
        fill: #d4d4d5;
      }

      .cls-9 {
        fill: #efedee;
      }

      .cls-10 {
        clip-path: url(#clip-path);
      }
    </style>
    <clipPath id="clip-path">
      <rect class="cls-1" x="15.39" y="2.32" width="526.37" height="526.38"/>
    </clipPath>
  </defs>
  <title>Asset 2</title>
  <g id="Layer_2" data-name="Layer 2">
    <g id="Layer_1-2" data-name="Layer 1">
      <g>
        <g>
          <path class="cls-2" d="M192,5.63A186.37,186.37,0,0,0,60.21,323.79,185.14,185.14,0,0,0,192,378.38a188.11,188.11,0,0,0,38.56-4V9.61a188.11,188.11,0,0,0-38.56-4Zm0,0"/>
          <path class="cls-3" d="M378.38,192A186.51,186.51,0,0,0,230.56,9.61a186.42,186.42,0,0,0-93.22,314.18,185.05,185.05,0,0,0,93.22,50.61A186.51,186.51,0,0,0,378.38,192Zm0,0"/>
          <path class="cls-2" d="M336.63,228a33.75,33.75,0,1,1-33.75-33.75A33.75,33.75,0,0,1,336.63,228Zm0,0"/>
          <path class="cls-2" d="M160.37,93a22.5,22.5,0,1,1-22.5-22.5A22.5,22.5,0,0,1,160.37,93Zm0,0"/>
          <path class="cls-2" d="M245.25,315.75A11.25,11.25,0,1,1,234,304.5a11.25,11.25,0,0,1,11.25,11.25Zm0,0"/>
          <path class="cls-4" d="M61.87,192a11.25,11.25,0,1,1-11.25-11.25A11.25,11.25,0,0,1,61.87,192Zm0,0"/>
          <path class="cls-2" d="M291.63,81.75A11.25,11.25,0,1,1,280.38,70.5a11.25,11.25,0,0,1,11.25,11.25Zm0,0"/>
          <path class="cls-4" d="M137.6,324,91.21,247.77a45,45,0,0,0,26.91,81.07A43.86,43.86,0,0,0,137.6,324Zm0,0"/>
          <path class="cls-2" d="M163.13,283.84a45,45,0,0,0-71.91-36.07A186.9,186.9,0,0,0,137.6,324h0a44.85,44.85,0,0,0,25.53-40.2Zm0,0"/>
          <path class="cls-5" d="M35.94,35.94a35.59,35.59,0,0,0,9.71-4.12,5.63,5.63,0,0,0,0-9.64,35.59,35.59,0,0,0-9.71-4.12,35.65,35.65,0,0,0-4.12-9.71,5.63,5.63,0,0,0-9.64,0,35.62,35.62,0,0,0-4.12,9.72,35.58,35.58,0,0,0-9.71,4.11,5.63,5.63,0,0,0,0,9.64,35.59,35.59,0,0,0,9.71,4.12,35.67,35.67,0,0,0,4.12,9.72,5.63,5.63,0,0,0,9.64,0,35.67,35.67,0,0,0,4.12-9.72Zm0,0"/>
          <path class="cls-5" d="M336,336.09a50.06,50.06,0,0,0,13.64-5.78,7.9,7.9,0,0,0,0-13.53A50.06,50.06,0,0,0,336,311a50,50,0,0,0-5.78-13.64,7.9,7.9,0,0,0-13.53,0A49.86,49.86,0,0,0,310.89,311a50.05,50.05,0,0,0-13.64,5.78,7.9,7.9,0,0,0,0,13.53,50.05,50.05,0,0,0,13.64,5.78,49.86,49.86,0,0,0,5.78,13.64,7.9,7.9,0,0,0,13.53,0A50,50,0,0,0,336,336.09Zm0,0"/>
          <path class="cls-6" d="M154.55,171.25c0,9.64-9.86,17.42-22,17.38s-21.89-7.88-21.86-17.52,9.86-17.42,22-17.38,21.89,7.88,21.86,17.51Zm0,0"/>
          <path class="cls-6" d="M229.44,171.54c0-9.64,9.86-17.42,22-17.38s21.88,7.88,21.86,17.51-9.86,17.42-22,17.38-21.89-7.88-21.86-17.52Zm0,0"/>
          <path d="M352.55,312a55.87,55.87,0,0,0-7.6-3.88A192,192,0,0,0,192,0,191.13,191.13,0,0,0,44.29,69.31a5.63,5.63,0,0,0,8.64,7.2A180.77,180.77,0,0,1,372.75,192a178.16,178.16,0,0,1-35.16,107.17q-1.18-2.43-2.59-4.75a13.52,13.52,0,0,0-23.12,0,55.68,55.68,0,0,0-5.52,12,55.53,55.53,0,0,0-12,5.52,13.53,13.53,0,0,0,0,23.13c1.54.94,3.11,1.79,4.73,2.58a178.16,178.16,0,0,1-107,35.07A180.84,180.84,0,0,1,40,94.08,5.62,5.62,0,1,0,30.55,88,192.17,192.17,0,0,0,257,372.76,189.86,189.86,0,0,0,308,345a55.94,55.94,0,0,0,3.89,7.62,13.52,13.52,0,0,0,23.12,0,55.56,55.56,0,0,0,5.52-12,55.57,55.57,0,0,0,12-5.52,13.53,13.53,0,0,0,0-23.12Zm-5.87,13.53a44.39,44.39,0,0,1-12.11,5.13c-5.34,1.38-2.85,5.81-9.17,16.15a2.27,2.27,0,0,1-3.93,0c-6.32-10.32-3.84-14.75-9.16-16.14a44.64,44.64,0,0,1-12.12-5.14,2.27,2.27,0,0,1,0-3.93c10.33-6.32,14.77-3.84,16.15-9.18a44.32,44.32,0,0,1,5.13-12.1,2.27,2.27,0,0,1,3.93,0,44.77,44.77,0,0,1,5.13,12.09c1.36,5.35,5.81,2.86,16.15,9.19a2.27,2.27,0,0,1,0,3.93Zm0,0"/>
          <path d="M302.88,199.88a5.62,5.62,0,1,0,0-11.25,39.37,39.37,0,1,0,31.9,62.46,5.62,5.62,0,0,0-9.11-6.6,28.13,28.13,0,1,1-22.79-44.61Zm0,0"/>
          <path d="M121.21,76.88a5.63,5.63,0,0,0-7.69,2.05,28.13,28.13,0,1,0,23-14,5.63,5.63,0,0,0,.54,11.24,16.86,16.86,0,1,1-13.82,8.42,5.63,5.63,0,0,0-2.05-7.69Zm0,0"/>
          <path d="M117.51,323.18A38.88,38.88,0,0,1,83.57,302.7a5.63,5.63,0,0,0-9.87,5.41c13.75,25.07,44.47,32.75,66.6,20.94h0l0,0c5.06,0,40.55-26.73,24.41-64.88a50.63,50.63,0,0,0-46.64-30.92,5.63,5.63,0,0,0,0,11.26A39.15,39.15,0,0,1,146,256c24.95,25,6.69,67.19-28.45,67.19Zm0,0"/>
          <path d="M73.12,278.21a5.63,5.63,0,1,0,5.63,5.63v0a5.64,5.64,0,0,0-5.62-5.62Zm0,0"/>
          <path d="M5.41,36.62a41.14,41.14,0,0,0,8.14,3.83,41.14,41.14,0,0,0,3.83,8.14,11.25,11.25,0,0,0,19.23,0,41.38,41.38,0,0,0,3.84-8.14,41.21,41.21,0,0,0,8.14-3.83,11.25,11.25,0,0,0,0-19.23,41.14,41.14,0,0,0-8.14-3.83,41.14,41.14,0,0,0-3.83-8.14,11.25,11.25,0,0,0-19.23,0,41.38,41.38,0,0,0-3.84,8.14,41.21,41.21,0,0,0-8.14,3.83,11.25,11.25,0,0,0,0,19.23ZM19.46,23.51a5.63,5.63,0,0,0,4-4A28.73,28.73,0,0,1,27,11.28a30.11,30.11,0,0,1,3.47,8.18,5.62,5.62,0,0,0,4,4A28.73,28.73,0,0,1,42.72,27a30.11,30.11,0,0,1-8.18,3.47,5.62,5.62,0,0,0-4,4A28.82,28.82,0,0,1,27,42.72a30,30,0,0,1-3.47-8.18,5.62,5.62,0,0,0-4-4A29,29,0,0,1,11.28,27a29.89,29.89,0,0,1,8.18-3.47Zm0,0"/>
          <path d="M199.5,179.25a5.63,5.63,0,1,0,0-11.25h-15a5.63,5.63,0,0,0,0,11.25Zm0,0"/>
          <path d="M150.55,142.7a7.73,7.73,0,0,1-13.85,0,5.62,5.62,0,1,0-10.15,4.85,19,19,0,0,0,34.15,0,5.62,5.62,0,0,0-10.15-4.85Zm0,0"/>
          <path d="M239.62,158.25a19,19,0,0,0,17.07-10.7,5.62,5.62,0,1,0-10.15-4.85,7.73,7.73,0,0,1-13.85,0,5.62,5.62,0,0,0-10.15,4.85,19,19,0,0,0,17.07,10.7Zm0,0"/>
        </g>
        <path class="cls-7" d="M252.34,134.92"/>
        <path class="cls-5" d="M192,266.38"/>
        <path class="cls-6" d="M199.16,265.5"/>
        <g>
          <path class="cls-8" d="M335.06,241.42a146,146,0,0,0-173.51,92.76h0A97.26,97.26,0,0,0,163,528.69H369.94Zm0,0"/>
          <path class="cls-9" d="M445,382.82a145.88,145.88,0,0,0-109.9-141.4,145.9,145.9,0,0,0,34.88,287.27h75.24A72.94,72.94,0,1,0,445,382.82Zm0,0"/>
          <path class="cls-6" d="M257.49,416.52c0,11.52-11.79,20.82-26.25,20.78s-26.16-9.42-26.13-20.93,11.79-20.82,26.25-20.78,26.16,9.41,26.12,20.93Zm0,0"/>
          <path class="cls-6" d="M346.94,416.88c0-11.52,11.79-20.82,26.25-20.78s26.16,9.42,26.13,20.93-11.79,20.82-26.25,20.78-26.16-9.41-26.12-20.93Zm0,0"/>
          <g class="cls-10">
            <path d="M468.45,367.72a153.83,153.83,0,0,0-87.08-131.1C216.9,181.89,173,321,173,321c-43.52-.69-72.4,32.93-72.4,32.93A104.92,104.92,0,0,0,179,528.69H461.13a79.93,79.93,0,0,0,36.16-8.54,7.71,7.71,0,0,0-6.92-13.79,64.58,64.58,0,0,1-29.24,6.91H179a89.64,89.64,0,0,1-89.54-89.54c0-48.72,39.56-88.88,88.18-89.52a7.72,7.72,0,0,0,7.22-5.32q2.22-6.29,5-12.24A138.15,138.15,0,0,1,453.2,375.11a7.7,7.7,0,0,0,7.77,7.72h.33a65.23,65.23,0,0,1,50.42,106.39,7.71,7.71,0,1,0,12,9.75,80.66,80.66,0,0,0-55.23-131.24Z"/>
          </g>
          <path d="M228.73,383.74V394a7.71,7.71,0,1,0,15.42,0V383.74a7.71,7.71,0,1,0-15.42,0Zm0,0"/>
          <path d="M360.31,383.74V394a7.71,7.71,0,1,0,15.42,0V383.74a7.71,7.71,0,1,0-15.42,0Zm0,0"/>
          <path d="M312.24,393.78a10.59,10.59,0,0,1-19,0,7.71,7.71,0,1,0-13.91,6.65,26,26,0,0,0,46.81,0,7.71,7.71,0,1,0-13.91-6.65Zm0,0"/>
        </g>
      </g>
    </g>
  </g>
</svg>
