<svg xmlns="http://www.w3.org/2000/svg" viewBox="0 0 341.23 223.87">
  <defs>
    <style>
      .cls-1 {
        fill: #efedee;
      }

      .cls-2 {
        fill: #ff8e9e;
      }
    </style>
  </defs>
  <title>Asset 2</title>
  <g id="Layer_2" data-name="Layer 2">
    <g id="Layer_1-2" data-name="Layer 1">
      <g>
        <g>
          <path class="cls-1" d="M202.07,8.68A106.53,106.53,0,0,0,75.48,76.35h0a71,71,0,0,0,1.07,141.9h151Zm0,0"/>
          <path class="cls-1" d="M282.24,111.83A106.42,106.42,0,0,0,202.07,8.68a106.43,106.43,0,0,0,25.44,209.57H282.4a53.21,53.21,0,1,0-.16-106.42Zm0,0"/>
          <path class="cls-2" d="M145.48,136.42c0,8.4-8.6,15.19-19.15,15.16s-19.08-6.87-19.06-15.27,8.6-15.19,19.15-15.16,19.08,6.87,19.06,15.27Zm0,0"/>
          <path class="cls-2" d="M210.73,136.68c0-8.4,8.6-15.19,19.15-15.16s19.08,6.87,19.06,15.27S240.34,152,229.79,152s-19.08-6.87-19.06-15.27Zm0,0"/>
          <path d="M287.74,106.44a112.22,112.22,0,0,0-62.18-95h0l-.05,0C104.72-34.59,72.73,73.12,72.73,73.12c-28.78-1.75-46.82,15.4-53.41,23.11l.09.16q-1.53,1.71-2.92,3.48h0A75.88,75.88,0,0,0,0,147.31a76.66,76.66,0,0,0,76.57,76.56H282.4a58.31,58.31,0,0,0,26.38-6.23,5.63,5.63,0,0,0-5.05-10.06,47.11,47.11,0,0,1-21.33,5H76.57A65.39,65.39,0,0,1,11.25,147.3c0-35.54,28.86-64.84,64.33-65.31a5.63,5.63,0,0,0,5.27-3.88q1.18-3.34,2.6-6.56a100.78,100.78,0,0,1,193.17,40.28,5.62,5.62,0,0,0,5.67,5.63h.24a47.58,47.58,0,0,1,36.78,77.61,5.63,5.63,0,1,0,8.72,7.11,58.85,58.85,0,0,0-40.29-95.74Z"/>
          <path d="M220.49,112.51V120a5.63,5.63,0,0,0,11.25,0v-7.5a5.63,5.63,0,1,0-11.25,0Zm0,0"/>
          <path d="M185.42,119.83a7.73,7.73,0,0,1-13.85,0,5.62,5.62,0,0,0-10.15,4.85,19,19,0,0,0,34.15,0,5.62,5.62,0,1,0-10.15-4.85Zm0,0"/>
        </g>
        <path d="M122.23,128.54a5.62,5.62,0,0,0,5.62-5.62v-7.5a5.62,5.62,0,1,0-11.25,0v7.5a5.62,5.62,0,0,0,5.63,5.62Zm0,0"/>
      </g>
    </g>
  </g>
</svg>
