<svg height="512pt" viewBox="-26 0 512 512.02219" width="512pt" xmlns="http://www.w3.org/2000/svg"><path d="m452.277344 401.089844c-8.855469 17.578125-21.058594 33.257812-35.925782 46.164062-42.582031 37.546875-107.519531 56.234375-181.671874 56.234375-2.136719 0-4.269532 0-6.402344-.171875-80.640625-1.277344-150.699219-29.78125-188.925782-71.679687-8.433593-9.101563-15.476562-19.394531-20.910156-30.546875-.511718-1.023438-.9375-2.050782-1.363281-3.074219-5.585937-12.453125-8.492187-25.941406-8.535156-39.59375v-166.65625c0-98.558594 77.910156-181.675781 176.472656-183.210937 14.292969-.261719 28.5625 1.226562 42.492187 4.4375 81.566407 18.578124 139.433594 91.109374 139.4375 174.761718v139.09375c-.222656 16.597656 3.925782 32.960938 12.03125 47.445313 11.265626 19.371093 35.242188 35.585937 73.300782 26.796875zm0 0" fill="#00838f"/><path d="m409.609375 446.230469c-42.835937 36.949219-107.347656 55.976562-181.332031 57.085937-80.640625-1.277344-150.699219-29.78125-188.925782-71.679687-8.433593-9.101563-15.476562-19.394531-20.910156-30.546875-.511718-1.023438-.9375-2.050782-1.363281-3.074219v-221.78125c.234375-88.09375 71.816406-159.335937 159.914063-159.144531 10.839843-.027344 21.652343 1.089844 32.257812 3.328125 74.21875 14.929687 127.621094 80.113281 127.65625 155.816406v194.476563s0 54.101562 72.703125 75.519531zm0 0" fill="#00bcd4"/><path d="m110.945312 170.6875c0-23.5625-11.460937-42.664062-25.601562-42.664062-14.136719 0-25.597656 19.101562-25.597656 42.664062 0 23.566406 11.460937 42.667969 25.597656 42.667969 14.140625 0 25.601562-19.101563 25.601562-42.667969zm0 0" fill="#37474f"/><path d="m85.34375 162.15625c0-9.425781-3.820312-17.066406-8.53125-17.066406-4.714844 0-8.535156 7.640625-8.535156 17.066406s3.820312 17.066406 8.535156 17.066406c4.710938 0 8.53125-7.640625 8.53125-17.066406zm0 0" fill="#fff"/><path d="m273.078125 170.6875c0-23.5625-11.460937-42.664062-25.601563-42.664062-14.136718 0-25.597656 19.101562-25.597656 42.664062 0 23.566406 11.460938 42.667969 25.597656 42.667969 14.140626 0 25.601563-19.101563 25.601563-42.667969zm0 0" fill="#37474f"/><path d="m204.8125 256.023438c-3.5625 0-6.75-2.210938-7.996094-5.546876-1.433594-3.917968-3.585937-7.535156-6.339844-10.667968-2.527343-2.898438-5.609374-5.257813-9.0625-6.9375-6.78125-3.261719-14.679687-3.261719-21.460937 0-3.460937 1.679687-6.546875 4.039062-9.074219 6.9375-2.753906 3.128906-4.90625 6.742187-6.339844 10.660156-1.066406 2.855469-3.574218 4.925781-6.582031 5.429688-3.007812.503906-6.054687-.632813-7.996093-2.988282-1.941407-2.351562-2.480469-5.558594-1.414063-8.417968 2.171875-5.871094 5.410156-11.292969 9.550781-15.988282 4.042969-4.617187 8.976563-8.367187 14.507813-11.027344 11.445312-5.476562 24.757812-5.476562 36.207031 0 5.527344 2.664063 10.460938 6.414063 14.503906 11.027344 4.144532 4.695313 7.378906 10.117188 9.550782 15.988282 1.652343 4.414062-.585938 9.332031-5 10.984374-.976563.363282-2.011719.550782-3.054688.546876zm0 0" fill="#2c3e50"/><path d="m247.476562 162.15625c0-9.425781-3.820312-17.066406-8.53125-17.066406-4.714843 0-8.535156 7.640625-8.535156 17.066406s3.820313 17.066406 8.535156 17.066406c4.710938 0 8.53125-7.640625 8.53125-17.066406zm0 0" fill="#fff"/><path d="m119.476562 315.753906v42.667969c0 18.851563-15.28125 34.132813-34.132812 34.132813s-34.132812-15.28125-34.132812-34.132813v-42.667969" fill="#00838f"/><path d="m119.476562 298.6875v34.132812c0 18.851563-15.28125 34.136719-34.132812 34.136719s-34.132812-15.285156-34.132812-34.136719v-34.132812c0-4.710938 3.820312-8.53125 8.535156-8.53125h51.199218c4.710938 0 8.53125 3.820312 8.53125 8.53125zm0 0" fill="#00838f"/><path d="m68.277344 281.621094h34.132812v68.269531c0 9.425781-7.640625 17.066406-17.066406 17.066406s-17.066406-7.640625-17.066406-17.066406zm0 0" fill="#00bcd4"/><path d="m290.144531 315.753906v42.667969c0 18.851563-15.28125 34.132813-34.132812 34.132813-18.851563 0-34.132813-15.28125-34.132813-34.132813v-42.667969" fill="#00838f"/><path d="m290.144531 298.6875v34.132812c0 18.851563-15.28125 34.136719-34.132812 34.136719-18.851563 0-34.132813-15.285156-34.132813-34.136719v-34.132812c0-4.710938 3.820313-8.53125 8.53125-8.53125h51.199219c4.714844 0 8.535156 3.820312 8.535156 8.53125zm0 0" fill="#00838f"/><path d="m238.945312 281.621094h34.132813v68.269531c0 9.425781-7.640625 17.066406-17.066406 17.066406s-17.066407-7.640625-17.066407-17.066406zm0 0" fill="#00bcd4"/><path d="m85.34375 221.890625c19.140625 0 34.132812-22.496094 34.132812-51.203125 0-28.703125-14.992187-51.199219-34.132812-51.199219s-34.132812 22.496094-34.132812 51.199219c0 28.707031 14.992187 51.203125 34.132812 51.203125zm0-85.335937c8.054688 0 17.066406 14.59375 17.066406 34.132812 0 19.542969-9.011718 34.132812-17.066406 34.132812s-17.066406-14.589843-17.066406-34.132812c0-19.539062 9.011718-34.132812 17.066406-34.132812zm0 0"/><path d="m247.476562 221.890625c19.140626 0 34.132813-22.496094 34.132813-51.203125 0-28.703125-14.992187-51.199219-34.132813-51.199219-19.140624 0-34.132812 22.496094-34.132812 51.199219 0 28.707031 14.992188 51.203125 34.132812 51.203125zm0-85.335937c8.058594 0 17.066407 14.59375 17.066407 34.132812 0 19.542969-9.007813 34.132812-17.066407 34.132812-8.054687 0-17.066406-14.589843-17.066406-34.132812 0-19.539062 9.011719-34.132812 17.066406-34.132812zm0 0"/><path d="m234.679688 512.023438c109.097656 0 191.1875-39.042969 225.277343-107.121094 1.480469-2.957032 1.121094-6.503906-.925781-9.101563-2.046875-2.597656-5.410156-3.777343-8.628906-3.03125-40.40625 9.386719-58.183594-12.800781-64-22.757812-7.378906-13.175781-11.148438-28.066407-10.925782-43.164063v-139.09375c.007813-50.292968-20.167968-98.484375-56-133.777344-35.832031-35.289062-84.328124-54.726562-134.617187-53.9531245-101.921875 1.5507815-184.8476562 87.5664065-184.8476562 191.7695315v166.628906c.0703124 16.058594 3.7421872 31.898437 10.7421872 46.351563 30.730469 64.148437 120.722656 107.25 223.925782 107.25zm-217.601563-320.230469c0-94.925781 75.382813-173.289063 168.03125-174.703125h2.636719c94.253906 0 170.664062 76.410156 170.664062 170.664062v139.09375c-.222656 18.101563 4.34375 35.9375 13.234375 51.703125 13.261719 22.640625 38.375 35.617188 64.515625 33.339844-35.210937 53.027344-107.4375 83.066406-201.480468 83.066406-95.269532 0-181.019532-40.109375-208.53125-97.527343-5.898438-12.164063-9-25.492188-9.070313-39.007813zm0 0"/><path d="m85.34375 409.621094c23.554688-.027344 42.640625-19.113282 42.667969-42.664063v-42.667969c0-4.714843-3.820313-8.535156-8.535157-8.535156-4.710937 0-8.53125 3.820313-8.53125 8.535156v42.667969c0 14.136719-11.460937 25.597657-25.601562 25.597657-14.136719 0-25.597656-11.460938-25.597656-25.597657v-42.667969c0-4.714843-3.820313-8.535156-8.535156-8.535156-4.710938 0-8.53125 3.820313-8.53125 8.535156v42.667969c.027343 23.550781 19.113281 42.636719 42.664062 42.664063zm0 0"/><path d="m256.011719 409.621094c23.550781-.027344 42.636719-19.113282 42.667969-42.664063v-42.667969c0-4.714843-3.824219-8.535156-8.535157-8.535156-4.714843 0-8.535156 3.820313-8.535156 8.535156v42.667969c0 14.136719-11.460937 25.597657-25.597656 25.597657-14.140625 0-25.601563-11.460938-25.601563-25.597657v-42.667969c0-4.714843-3.820312-8.535156-8.53125-8.535156-4.714844 0-8.535156 3.820313-8.535156 8.535156v42.667969c.027344 23.550781 19.113281 42.636719 42.667969 42.664063zm0 0"/><path d="m133.550781 255.484375c2.121094.796875 4.472657.714844 6.53125-.226563 2.0625-.9375 3.667969-2.660156 4.457031-4.78125 1.433594-3.917968 3.585938-7.535156 6.339844-10.667968 2.527344-2.898438 5.613282-5.257813 9.074219-6.9375 6.78125-3.261719 14.679687-3.261719 21.460937 0 3.453126 1.679687 6.535157 4.039062 9.0625 6.9375 2.753907 3.128906 4.90625 6.742187 6.339844 10.660156 1.242188 3.339844 4.429688 5.554688 7.996094 5.554688 1.019531 0 2.035156-.183594 2.992188-.539063 4.414062-1.652344 6.652343-6.570313 5.003906-10.980469-2.171875-5.875-5.410156-11.296875-9.550782-15.992187-4.042968-4.613281-8.976562-8.363281-14.507812-11.027344-11.445312-5.476563-24.757812-5.476563-36.207031 0-5.527344 2.660156-10.460938 6.410156-14.503907 11.027344-4.144531 4.695312-7.378906 10.117187-9.550781 15.992187-.789062 2.125-.699219 4.480469.25 6.539063.949219 2.0625 2.679688 3.660156 4.8125 4.441406zm0 0"/></svg>